<?xml version="1.0" encoding="UTF-8" standalone="no"?>
<!DOCTYPE svg PUBLIC "-//W3C//DTD SVG 1.1//EN" "http://www.w3.org/Graphics/SVG/1.1/DTD/svg11.dtd">
<svg width="100%" height="100%" viewBox="0 0 1028 311" version="1.1" xmlns="http://www.w3.org/2000/svg" xmlns:xlink="http://www.w3.org/1999/xlink" xml:space="preserve" xmlns:serif="http://www.serif.com/" style="fill-rule:evenodd;clip-rule:evenodd;stroke-linecap:round;stroke-linejoin:round;stroke-miterlimit:1.5;">
    <g transform="matrix(1,0,0,1,-1099.18,-3070.29)">
        <g transform="matrix(0.834952,0,0,0.834952,827.016,2671.37)">
            <text x="315px" y="732px" style="font-family:'RobotoMono-Regular', 'Roboto Mono';font-size:229.167px;fill:rgb(69,69,69);">vento</text>
        </g>
        <g transform="matrix(0.52922,0,0,0.732484,893.324,2292.56)">
            <path d="M1644,1213.15L1946,1213.15" style="fill:none;stroke:rgb(52,195,164);stroke-width:26.08px;"/>
        </g>
        <g transform="matrix(1,0,0,1,344.362,228.757)">
            <g transform="matrix(1.20107,0,0,0.732484,-614.56,2108.33)">
                <path d="M1644,1213.15L1946,1213.15" style="fill:none;stroke:rgb(52,195,164);stroke-width:16.75px;"/>
            </g>
            <g transform="matrix(0.423759,0,0,0.423759,1456.18,2019.76)">
                <path d="M629,2306C718.026,2303.56 750.618,2225.33 750,2185C748.593,2093.17 669.33,2063.49 629,2064C563.66,2064.83 511.271,2109.2 508,2185" style="fill:none;stroke:rgb(52,195,164);stroke-width:39.33px;"/>
            </g>
        </g>
        <g transform="matrix(1,0,0,1,344.362,228.757)">
            <g transform="matrix(0.517888,0,0,0.732484,599.592,2152.86)">
                <path d="M1644,1213.15L1946,1213.15" style="fill:none;stroke:rgb(52,195,164);stroke-width:26.27px;"/>
            </g>
            <g transform="matrix(0.423759,0,0,-0.423759,1339.23,4018.65)">
                <path d="M629,2306C718.026,2303.56 750.618,2225.33 750,2185C748.593,2093.17 669.33,2063.49 629,2064C563.66,2064.83 511.271,2109.2 508,2185" style="fill:none;stroke:rgb(52,195,164);stroke-width:39.33px;"/>
            </g>
        </g>
        <g transform="matrix(0.423759,0,0,0.423759,1657.23,2203.98)">
            <path d="M629,2306C718.026,2303.56 750.618,2225.33 750,2185C748.593,2093.17 669.33,2063.49 629,2064C563.66,2064.83 511.271,2109.2 508,2185" style="fill:none;stroke:rgb(52,195,164);stroke-width:39.33px;"/>
        </g>
        <g transform="matrix(1.74101,0,0,1.74101,-1297.81,-623.959)">
            <circle cx="1850.41" cy="2156.14" r="6.748" style="fill:rgb(52,195,164);"/>
        </g>
        <g transform="matrix(1.74101,0,0,1.74101,-1154.49,-579.43)">
            <circle cx="1850.41" cy="2156.14" r="6.748" style="fill:rgb(52,195,164);"/>
        </g>
        <g transform="matrix(1.74101,0,0,1.74101,-1271.44,-432.364)">
            <circle cx="1850.41" cy="2156.14" r="6.748" style="fill:rgb(52,195,164);"/>
        </g>
    </g>
</svg>
